<?xml version="1.0" standalone="no"?>
<!DOCTYPE svg PUBLIC "-//W3C//DTD SVG 20010904//EN"
 "http://www.w3.org/TR/2001/REC-SVG-20010904/DTD/svg10.dtd">
<svg version="1.0" xmlns="http://www.w3.org/2000/svg"
 width="470.000000pt" height="470.000000pt" viewBox="0 0 470.000000 470.000000"
 preserveAspectRatio="xMidYMid meet">

<g transform="translate(0.000000,470.000000) scale(0.100000,-0.100000)"
fill="#000000" stroke="none">
<path d="M2126 4269 c-29 -16 -44 -33 -59 -70 l-21 -49 -280 0 c-276 0 -282
-1 -333 -24 -71 -33 -104 -91 -111 -190 -2 -39 1 -90 7 -114 14 -51 58 -104
106 -126 19 -9 35 -21 35 -25 0 -4 -39 -39 -87 -77 -323 -255 -531 -606 -600
-1014 -19 -115 -21 -353 -4 -465 45 -294 162 -561 342 -780 l57 -71 3 -139 c4
-132 6 -143 32 -187 15 -26 39 -55 55 -66 139 -98 513 -230 730 -257 l52 -7 0
-87 c0 -70 4 -95 23 -131 38 -74 60 -80 287 -80 223 0 247 7 287 76 19 33 23
54 23 131 l0 92 58 6 c173 21 560 152 689 234 43 27 70 54 90 88 26 45 28 55
31 186 l4 139 62 76 c253 314 383 734 347 1122 -12 135 -53 323 -95 433 -100
266 -294 527 -524 706 -45 36 -82 68 -82 73 0 4 15 14 33 21 44 19 94 78 108
129 27 101 -7 243 -68 286 -56 38 -88 42 -372 42 l-276 0 -22 50 c-16 37 -31
54 -62 69 -37 19 -57 21 -233 21 -175 -1 -197 -3 -232 -21z m436 -86 c13 -12
18 -30 18 -70 l0 -53 331 0 331 0 34 -34 c32 -32 34 -38 34 -105 0 -87 -18
-127 -65 -147 -51 -21 -1719 -21 -1770 0 -50 21 -68 63 -63 154 3 69 6 76 36
103 l32 29 330 0 330 0 0 52 c0 87 2 88 218 88 159 0 188 -2 204 -17z m598
-1563 c0 -1158 4 -1084 -62 -1132 l-33 -23 -705 0 -705 0 -33 23 c-66 48 -62
-26 -62 1132 l0 1050 800 0 800 0 0 -1050z m-1758 -67 c17 -15 18 -51 18 -735
0 -478 3 -726 10 -739 21 -38 267 -145 435 -189 124 -32 274 -56 415 -65 184
-13 483 30 681 96 129 43 315 132 328 157 8 15 11 236 11 734 0 803 -4 758 72
758 25 0 49 -7 60 -17 17 -15 18 -53 18 -777 0 -738 -1 -762 -20 -793 -25 -42
-80 -76 -206 -129 -196 -82 -412 -141 -581 -160 l-63 -7 0 -121 c0 -176 13
-166 -220 -166 -233 0 -220 -10 -220 166 l0 121 -62 7 c-99 11 -252 44 -357
77 -131 42 -327 124 -376 157 -79 55 -75 4 -75 851 0 688 1 756 17 773 21 23
89 24 115 1z m-224 -345 l2 -218 -55 0 c-92 0 -95 7 -95 211 0 101 4 178 11
190 14 27 45 39 94 36 l40 -2 3 -217z m2492 197 c19 -17 20 -31 20 -197 0
-212 -3 -218 -95 -218 l-55 0 0 213 c0 118 3 217 8 221 13 14 101 0 122 -19z"/>
<path d="M1878 3469 c-17 -9 -18 -58 -18 -789 0 -760 0 -780 19 -790 31 -16
86 -12 104 8 16 17 17 86 17 784 0 728 -1 766 -18 781 -21 19 -77 22 -104 6z"/>
<path d="M2306 3464 c-14 -14 -16 -99 -16 -784 0 -857 -5 -800 70 -800 75 0
70 -57 70 800 0 857 5 800 -70 800 -22 0 -45 -7 -54 -16z"/>
<path d="M2736 3458 c-14 -20 -16 -110 -16 -778 0 -842 -4 -800 66 -800 20 0
44 5 55 10 19 10 19 30 19 790 0 760 0 780 -19 790 -35 18 -88 12 -105 -12z"/>
</g>
</svg>
